<?xml version="1.0" encoding="UTF-8" standalone="no"?>
<svg width="1350px" height="120px" viewBox="0 0 1350 120" version="1.1" xmlns="http://www.w3.org/2000/svg" xmlns:xlink="http://www.w3.org/1999/xlink" xmlns:sketch="http://www.bohemiancoding.com/sketch/ns">
    <!-- Generator: Sketch 3.0.1 (7597) - http://www.bohemiancoding.com/sketch -->
    <title>Untitled 2</title>
    <description>Created with Sketch.</description>
    <defs></defs>
    <g id="Page-1" stroke="none" stroke-width="1" fill="none" fill-rule="evenodd" sketch:type="MSPage">
        <path d="M56,48 L96,48 L96,32 L104,32 L104,24 L112,24 L112,16 L136,16 L136,8 L160,8 L160,16 L176,16 L176,24 L184,24 L184,32 L200,32 L200,48 L184,48 L184,56 L200,56 L200,72 L184,72 L184,80 L200,80 L200,96 L184,96 L184,104 L192,104 L192,120 L136,120 L136,112 L96,112 L96,104 L56,104 L56,48 L56,48 Z" id="Zero" fill="#000000" sketch:type="MSShapeGroup" transform="translate(128.000000, 64.000000) scale(-1, 1) translate(-128.000000, -64.000000) "></path>
        <path d="M238,48 L278,48 L278,32 L286,32 L286,24 L294,24 L294,16 L318,16 L318,8 L342,8 L342,16 L358,16 L358,24 L366,24 L366,32 L430,32 L430,48 L366,48 L366,56 L382,56 L382,72 L366,72 L366,80 L382,80 L382,96 L366,96 L366,104 L374,104 L374,120 L318,120 L318,112 L278,112 L278,104 L238,104 L238,48 L238,48 Z" id="One" fill="#000000" sketch:type="MSShapeGroup" transform="translate(334.000000, 64.000000) scale(-1, 1) translate(-334.000000, -64.000000) "></path>
        <path d="M460,48 L500,48 L500,32 L508,32 L508,24 L516,24 L516,16 L540,16 L540,8 L564,8 L564,16 L580,16 L580,24 L588,24 L588,32 L652,32 L652,48 L588,48 L588,56 L660,56 L660,72 L588,72 L588,80 L604,80 L604,96 L588,96 L588,104 L596,104 L596,120 L540,120 L540,112 L500,112 L500,104 L460,104 L460,48 L460,48 Z" id="Two" fill="#000000" sketch:type="MSShapeGroup" transform="translate(560.000000, 64.000000) scale(-1, 1) translate(-560.000000, -64.000000) "></path>
        <path d="M690,48 L730,48 L730,32 L738,32 L738,24 L746,24 L746,16 L770,16 L770,8 L794,8 L794,16 L810,16 L810,24 L818,24 L818,32 L882,32 L882,48 L818,48 L818,56 L890,56 L890,72 L818,72 L818,80 L882,80 L882,96 L818,96 L818,104 L826,104 L826,120 L770,120 L770,112 L730,112 L730,104 L690,104 L690,48 L690,48 Z" id="Three" fill="#000000" sketch:type="MSShapeGroup" transform="translate(790.000000, 64.000000) scale(-1, 1) translate(-790.000000, -64.000000) "></path>
        <path d="M920,48 L960,48 L960,32 L968,32 L968,24 L976,24 L976,16 L1000,16 L1000,8 L1024,8 L1024,16 L1040,16 L1040,24 L1048,24 L1048,32 L1112,32 L1112,48 L1048,48 L1048,56 L1120,56 L1120,72 L1048,72 L1048,80 L1112,80 L1112,96 L1048,96 L1048,104 L1096,104 L1096,120 L1000,120 L1000,112 L960,112 L960,104 L920,104 L920,48 L920,48 Z" id="Four" fill="#000000" sketch:type="MSShapeGroup" transform="translate(1020.000000, 64.000000) scale(-1, 1) translate(-1020.000000, -64.000000) "></path>
        <path d="M1190,48 L1190,32 L1198,32 L1198,24 L1206,24 L1206,16 L1230,16 L1230,8 L1254,8 L1254,0 L1278,0 L1278,16 L1262,15.8085938 L1262,24 L1238,24 L1238,32 L1342,32 L1342,48 L1278,48 L1278,56 L1350,56 L1350,72 L1278,72 L1278,80 L1342,80 L1342,96 L1278,96 L1278,104 L1326,104 L1326,120 L1230,120 L1230,112 L1190,112 L1190,104 L1150,104 L1150,48 L1190,48 Z" id="Five" fill="#000000" sketch:type="MSShapeGroup" transform="translate(1250.000000, 60.000000) scale(-1, 1) translate(-1250.000000, -60.000000) "></path>
    </g>
</svg>