<?xml version="1.0" encoding="UTF-8" standalone="no"?>
<svg width="1350px" height="120px" viewBox="0 0 1350 120" version="1.1" xmlns="http://www.w3.org/2000/svg" xmlns:xlink="http://www.w3.org/1999/xlink" xmlns:sketch="http://www.bohemiancoding.com/sketch/ns">
    <!-- Generator: Sketch 3.0.1 (7597) - http://www.bohemiancoding.com/sketch -->
    <title>Group</title>
    <description>Created with Sketch.</description>
    <defs></defs>
    <g id="Page-1" stroke="none" stroke-width="1" fill="none" fill-rule="evenodd" sketch:type="MSPage">
        <g id="Group" sketch:type="MSLayerGroup" fill="#000000" opacity="0.802646922">
            <path d="M0,48 L40,48 L40,32 L48,32 L48,24 L56,24 L56,16 L80,16 L80,8 L104,8 L104,16 L120,16 L120,24 L128,24 L128,32 L144,32 L144,48 L128,48 L128,56 L144,56 L144,72 L128,72 L128,80 L144,80 L144,96 L128,96 L128,104 L136,104 L136,120 L80,120 L80,112 L40,112 L40,104 L0,104 L0,48 Z" id="Zero" sketch:type="MSShapeGroup"></path>
            <path d="M230,48 L270,48 L270,32 L278,32 L278,24 L286,24 L286,16 L310,16 L310,8 L334,8 L334,16 L350,16 L350,24 L358,24 L358,32 L422,32 L422,48 L358,48 L358,56 L374,56 L374,72 L358,72 L358,80 L374,80 L374,96 L358,96 L358,104 L366,104 L366,120 L310,120 L310,112 L270,112 L270,104 L230,104 L230,48 Z" id="One" sketch:type="MSShapeGroup"></path>
            <path d="M460,48 L500,48 L500,32 L508,32 L508,24 L516,24 L516,16 L540,16 L540,8 L564,8 L564,16 L580,16 L580,24 L588,24 L588,32 L652,32 L652,48 L588,48 L588,56 L660,56 L660,72 L588,72 L588,80 L604,80 L604,96 L588,96 L588,104 L596,104 L596,120 L540,120 L540,112 L500,112 L500,104 L460,104 L460,48 Z" id="Two" sketch:type="MSShapeGroup"></path>
            <path d="M690,48 L730,48 L730,32 L738,32 L738,24 L746,24 L746,16 L770,16 L770,8 L794,8 L794,16 L810,16 L810,24 L818,24 L818,32 L882,32 L882,48 L818,48 L818,56 L890,56 L890,72 L818,72 L818,80 L882,80 L882,96 L818,96 L818,104 L826,104 L826,120 L770,120 L770,112 L730,112 L730,104 L690,104 L690,48 Z" id="Three" sketch:type="MSShapeGroup"></path>
            <path d="M920,48 L960,48 L960,32 L968,32 L968,24 L976,24 L976,16 L1000,16 L1000,8 L1024,8 L1024,16 L1040,16 L1040,24 L1048,24 L1048,32 L1112,32 L1112,48 L1048,48 L1048,56 L1120,56 L1120,72 L1048,72 L1048,80 L1112,80 L1112,96 L1048,96 L1048,104 L1096,104 L1096,120 L1000,120 L1000,112 L960,112 L960,104 L920,104 L920,48 Z" id="Four" sketch:type="MSShapeGroup"></path>
            <path d="M1150,48 L1190,48 L1190,32 L1198,32 L1198,24 L1206,24 L1206,16 L1230,16 L1230,8 L1254,8 L1254,0 L1278,0 L1278,16 L1262,15.8085938 L1262,24 L1238,24 L1238,32 L1342,32 L1342,48 L1278,48 L1278,56 L1350,56 L1350,72 L1278,72 L1278,80 L1342,80 L1342,96 L1278,96 L1278,104 L1326,104 L1326,120 L1230,120 L1230,112 L1190,112 L1190,104 L1150,104 L1150,48 Z" id="Five" sketch:type="MSShapeGroup"></path>
        </g>
    </g>
</svg>